<mxfile host="app.diagrams.net" modified="2023-05-31T05:02:27.886Z" agent="Mozilla/5.0 (Windows NT 10.0; Win64; x64) AppleWebKit/537.36 (KHTML, like Gecko) Chrome/113.0.0.0 Safari/537.36" version="21.3.5" etag="Ga-h2E5yCBFVnEiyXjQM" type="github">
  <diagram name="페이지-1" id="E1JN3tFLm8bEnrlwOiXK">
    <mxGraphModel>
      <root>
        <mxCell id="0" />
        <mxCell id="1" parent="0" />
      </root>
    </mxGraphModel>
  </diagram>
</mxfile>
